<?xml version="1.0" encoding="UTF-8"?>
<svg xmlns="http://www.w3.org/2000/svg" viewBox="0 0 173.3 118.34">
  <defs>
    <style>
      .cls-1 {
        fill: #b9baa3;
        stroke-width: 0px;
      }

      .cls-2 {
        fill: none;
        stroke: #b9baa3;
        stroke-linecap: round;
        stroke-linejoin: round;
      }
    </style>
  </defs>
  <g id="Layer_1" data-name="Layer 1">
    <g>
      <path class="cls-1" d="M0,108.88c0-5.9,3.48-9.5,8.12-9.5,2.22,0,3.96,1.08,5.03,2.26l-1.28,1.52c-.96-1.03-2.17-1.73-3.72-1.73-3.46,0-5.76,2.83-5.76,7.39s2.2,7.48,5.66,7.48c1.75,0,3.07-.76,4.24-2.05l1.28,1.46c-1.44,1.68-3.24,2.64-5.61,2.64-4.56,0-7.97-3.53-7.97-9.47Z"/>
      <path class="cls-1" d="M20.75,99.71h2.63l6.19,18.3h-2.47l-3.19-10.22c-.66-2.05-1.24-4.05-1.83-6.17h-.11c-.57,2.12-1.15,4.12-1.81,6.17l-3.23,10.22h-2.37l6.19-18.3ZM17.81,110.58h8.42v1.86h-8.42v-1.86Z"/>
      <path class="cls-1" d="M32.04,99.71h5.73c3.73,0,6.4,1.34,6.4,5.15s-2.68,5.41-6.4,5.41h-3.4v7.73h-2.33v-18.3ZM37.43,108.39c2.85,0,4.41-1.15,4.41-3.53s-1.57-3.26-4.41-3.26h-3.07v6.79h3.07ZM37.31,109.64l1.82-1.21,5.58,9.58h-2.64l-4.77-8.37Z"/>
      <path class="cls-1" d="M53.48,99.71h4.58c5.63,0,8.64,3.27,8.64,9.08s-3.02,9.21-8.54,9.21h-4.68v-18.3ZM57.88,116.1c4.28,0,6.41-2.68,6.41-7.31s-2.13-7.17-6.41-7.17h-2.08v14.48h2.08Z"/>
      <path class="cls-1" d="M70.63,99.71h10.55v1.97h-8.22v5.73h6.93v1.97h-6.93v6.65h8.5v1.97h-10.82v-18.3Z"/>
      <path class="cls-1" d="M89.13,101.68h-5.53v-1.97h13.4v1.97h-5.54v16.33h-2.33v-16.33Z"/>
      <path class="cls-1" d="M102.91,99.71h2.63l6.19,18.3h-2.47l-3.19-10.22c-.66-2.05-1.24-4.05-1.83-6.17h-.11c-.57,2.12-1.15,4.12-1.81,6.17l-3.23,10.22h-2.37l6.19-18.3ZM99.98,110.58h8.42v1.86h-8.42v-1.86Z"/>
      <path class="cls-1" d="M114.21,99.71h2.33v18.3h-2.33v-18.3Z"/>
      <path class="cls-1" d="M121.54,99.71h2.33v16.33h7.99v1.97h-10.31v-18.3Z"/>
      <path class="cls-1" d="M135.09,99.71h2.33v18.3h-2.33v-18.3Z"/>
      <path class="cls-1" d="M142.42,99.71h2.4l6.62,11.5,1.97,3.79h.11c-.12-1.85-.3-3.91-.3-5.82v-9.47h2.21v18.3h-2.4l-6.62-11.51-1.97-3.78h-.11c.12,1.85.3,3.8.3,5.72v9.58h-2.21v-18.3Z"/>
      <path class="cls-1" d="M159.4,108.88c0-5.9,3.55-9.5,8.4-9.5,2.54,0,4.21,1.15,5.28,2.26l-1.28,1.52c-.93-.96-2.1-1.73-3.94-1.73-3.69,0-6.05,2.83-6.05,7.39s2.17,7.48,6.08,7.48c1.31,0,2.57-.39,3.3-1.08v-4.76h-3.87v-1.93h6v7.69c-1.18,1.23-3.18,2.12-5.64,2.12-4.83,0-8.26-3.53-8.26-9.47Z"/>
    </g>
  </g>
  <g id="outline">
    <path class="cls-2" d="M88.56,44.85s26.35,1.18,29.88,2.82,7.68,10.59,7.68,10.59c0,0,3.62,6.82-37.56,6.12"/>
    <path class="cls-2" d="M88.56,44.85s-26.35,1.18-29.88,2.82-7.68,10.59-7.68,10.59c0,0-3.62,6.82,37.56,6.12"/>
    <path class="cls-2" d="M55.97,44.85l-28.41-7.12s-5.82,2.65-2.12,11.12c0,0,19.66,3.53,25.71,0l4.82-4Z"/>
    <path class="cls-2" d="M121.39,44.85l28.41-7.12s5.82,2.65,2.12,11.12c0,0-19.66,3.53-25.71,0l-4.82-4Z"/>
    <path class="cls-2" d="M88.56.5s26.47,0,32.59,1.76,15.88,20.65,15.88,20.65h-48.47"/>
    <path class="cls-2" d="M88.56.5s-26.47,0-32.59,1.76-15.88,20.65-15.88,20.65h48.47"/>
    <path class="cls-2" d="M138.5,23.97l7.94,4.94s7.94,10.94,9.35,11.82,2.47,18.46,1.24,23.7c0,0-1.7,15.65-4.11,18.3,0,0-24.47,4.06-30.83,4.41s-29.82,1.24-33.53,1.06"/>
    <path class="cls-2" d="M38.62,23.97l-7.94,4.94s-7.94,10.94-9.35,11.82-2.47,18.46-1.24,23.7c0,0,1.7,15.65,4.11,18.3,0,0,24.47,4.06,30.83,4.41s29.82,1.24,33.53,1.06"/>
    <path class="cls-2" d="M157.58,74.26s.24,15.06-4.71,17.76c0,0-15.06.47-16.94,0s-2.24-4.94-2.24-4.94"/>
    <path class="cls-2" d="M20.09,74.26s-.24,15.06,4.71,17.76c0,0,15.06.47,16.94,0s2.24-4.94,2.24-4.94"/>
    <path class="cls-2" d="M142.47,24.85s6.35.88,6.88-3.18-11.38-3.35-11.38-3.35v3"/>
    <path class="cls-2" d="M34.56,24.85s-6.35.88-6.88-3.18,11.38-3.35,11.38-3.35v3"/>
    <path class="cls-2" d="M88.8,78.85h22.82s12.47,1.65,19.53-6.82c7.06-8.47,18.55-7.6,18.55-7.6,0,0,4.39,4.89,1.34,9.83s-7.65,6.47-7.65,6.47c-8.7.3-17.61.5-26.71.59-9.59.09-18.96.04-28.12-.12"/>
    <path class="cls-2" d="M88.56,78.85h-22.82s-12.47,1.65-19.53-6.82-18.55-7.6-18.55-7.6c0,0-4.39,4.89-1.34,9.83s7.65,6.47,7.65,6.47c8.7.3,17.61.5,26.71.59,9.59.09,18.96.04,28.12-.12"/>
    <rect class="cls-2" x="64.32" y="67.03" width="48.47" height="9.09"/>
    <path class="cls-2" d="M132.91,21.61l-9.85-16.63s-29.92-1.76-34.51-1.29"/>
    <path class="cls-2" d="M44.21,21.61l9.85-16.63s29.92-1.76,34.51-1.29"/>
  </g>
</svg>