<?xml version="1.0" encoding="UTF-8"?>
<svg xmlns="http://www.w3.org/2000/svg" viewBox="0 0 200 200">
  <defs>
    <style>
      .cls-1, .cls-2, .cls-3, .cls-4, .cls-5, .cls-6, .cls-7 {
        stroke-linecap: round;
        stroke-linejoin: round;
      }

      .cls-1, .cls-2, .cls-3, .cls-4, .cls-5, .cls-7 {
        stroke-width: .25px;
      }

      .cls-1, .cls-8 {
        fill: #202124;
      }

      .cls-1, .cls-7 {
        stroke: #3e2513;
      }

      .cls-9 {
        fill: #573113;
      }

      .cls-9, .cls-10, .cls-11, .cls-12, .cls-13, .cls-14, .cls-8, .cls-15 {
        stroke-width: 0px;
      }

      .cls-2 {
        stroke: #8d1a1c;
      }

      .cls-2, .cls-3, .cls-4, .cls-5, .cls-7 {
        fill: none;
      }

      .cls-3 {
        stroke: #34668b;
      }

      .cls-16 {
        isolation: isolate;
      }

      .cls-11 {
        fill: #4caad3;
      }

      .cls-12 {
        fill: #231f20;
        mix-blend-mode: darken;
        opacity: .36;
      }

      .cls-17 {
        stroke-miterlimit: 10;
        stroke-width: .1px;
      }

      .cls-17, .cls-6 {
        stroke: #f89522;
      }

      .cls-17, .cls-15 {
        fill: #fdb526;
      }

      .cls-13 {
        fill: #be2026;
      }

      .cls-4 {
        stroke: #859b3b;
      }

      .cls-5 {
        stroke: #f89521;
      }

      .cls-14 {
        fill: #b3d33d;
      }

      .cls-6 {
        fill: #f89522;
        stroke-width: .02px;
      }
    </style>
  </defs>
  <g class="cls-16">
    <g id="background">
      <rect class="cls-8" width="200" height="200"/>
    </g>
    <g id="outline">
      <g>
        <path class="cls-9" d="M33.09,65.23v3.37c-4.81-.03-9.62-.06-14.43-.09v64.1h14.5v3.24c-5.86-.05-11.71-.09-17.57-.14v-70.47c5.83,0,11.66,0,17.5,0Z"/>
        <polyline class="cls-7" points="33.16 135.84 15.59 135.84 15.59 65.23 33.16 65.23"/>
        <path class="cls-1" d="M33.16,68.5h-14.5v64.1h14.5"/>
        <g id="_3-box" data-name="3-box">
          <polygon class="cls-11" points="5.55 112.71 5.55 137.53 46.5 137.53 46.5 112.42 5.55 112.71"/>
          <rect class="cls-11" x="3.62" y="100.96" width="44.57" height="11.46"/>
          <g>
            <polygon class="cls-15" points="21.78 137.53 30.31 137.53 30.31 100.96 21.74 100.77 21.78 137.53"/>
            <path class="cls-15" d="M25.37,100.96c-.29-3.94-1.41-6.61-2.17-8.05-1.44-2.77-3.85-5.62-4.64-6.54-.12-.14-.19-.22-.2-.23-7.04.61-8.82,8.15-8.82,8.15,2.1,1.04,4.27,2.16,6.48,3.38,2,1.1,3.92,2.2,5.76,3.3h3.59Z"/>
            <path class="cls-15" d="M25.48,100.9c.24-1,.58-2.24,1.04-3.65.62-1.88,1.2-3.2,1.81-4.61,1.62-3.71,2.29-4.45,2.62-4.78.86-.87,1.76-1.39,2.38-1.69.96.1,2.39.47,3.92,1.35,1.99,1.14,4.05,3.22,4.31,6.96-3.61,2.19-7.23,4.37-10.84,6.56"/>
            <path class="cls-5" d="M21.78,112.84v24.45"/>
            <path class="cls-5" d="M30.31,137.28v-24.61"/>
            <rect class="cls-12" x="5.55" y="112.71" width="40.95" height="4.75"/>
            <path class="cls-5" d="M30.83,100.93c1.84-1.07,3.7-2.17,5.58-3.3,1.74-1.05,3.46-2.1,5.15-3.14-.61-7.66-7.96-8.36-7.96-8.36-4.55.52-8.23,14.83-8.23,14.83.17-7.53-7-14.83-7-14.83-.91.14-4.47.78-6.91,3.93-1.23,1.59-1.71,3.21-1.91,4.22,2.11.99,4.32,2.11,6.59,3.36,2,1.1,3.88,2.22,5.64,3.32-.27-1.18-.92-3.25-2.55-5.34-1.47-1.89-3.12-2.97-4.15-3.54"/>
            <path class="cls-5" d="M29.61,100.96s2.39-7.28,6.65-8.75"/>
            <path class="cls-5" d="M21.78,100.96v11.64l8.53-.18v-11.46"/>
            <polygon class="cls-3" points="5.55 112.71 5.55 137.53 46.5 137.53 46.5 112.42 5.55 112.71"/>
            <rect class="cls-3" x="3.62" y="100.96" width="44.8" height="11.46"/>
          </g>
        </g>
        <g id="_2-box" data-name="2-box">
          <polygon class="cls-14" points="4.35 130.69 4.35 138.92 17.93 138.92 17.93 130.59 4.35 130.69"/>
          <rect class="cls-14" x="3.72" y="126.79" width="14.78" height="3.8"/>
          <g>
            <polygon class="cls-15" points="9.74 138.92 12.56 138.92 12.56 126.79 9.72 126.73 9.74 138.92"/>
            <path class="cls-15" d="M10.9,126.71c-.07-1.01-.32-1.75-.54-2.25,0,0-.27-.61-1.75-2.59h0c-2.34.2-2.92,2.7-2.92,2.7l3.84,2.15c.46,0,.92-.01,1.38-.02Z"/>
            <path class="cls-15" d="M11.04,126.73s1.16-4.7,2.52-4.84c0,0,2.55.28,2.73,2.76l-3.5,2.2"/>
            <path class="cls-5" d="M9.74,130.73v8.11"/>
            <path class="cls-5" d="M12.56,138.84v-8.16"/>
            <rect class="cls-12" x="4.35" y="130.69" width="13.58" height="1.58"/>
            <path class="cls-5" d="M12.56,126.85c.42-.16,3.73-2.2,3.73-2.2-.2-2.54-2.64-2.77-2.64-2.77-1.51.17-2.73,4.92-2.73,4.92.06-2.5-2.32-4.92-2.32-4.92-.3.05-1.48.26-2.29,1.3-.41.53-.57,1.07-.63,1.4.7.33,1.43.7,2.18,1.11.66.37,1.29.73,1.87,1.1-.09-.39-.3-1.08-.84-1.77-.49-.63-1.04-.99-1.37-1.17"/>
            <path class="cls-5" d="M12.33,126.79s.79-2.41,2.2-2.9"/>
            <path class="cls-5" d="M9.74,126.79v3.86l2.83-.06v-3.8"/>
            <polygon class="cls-4" points="4.35 130.69 4.35 138.92 17.93 138.92 17.93 130.59 4.35 130.69"/>
            <rect class="cls-4" x="3.72" y="126.79" width="14.85" height="3.8"/>
          </g>
        </g>
        <g id="_1-box" data-name="1-box">
          <polygon class="cls-13" points="17.45 84.13 17.45 100.92 45.15 100.92 45.15 83.93 17.45 84.13"/>
          <rect class="cls-13" x="16.15" y="76.18" width="30.15" height="7.75"/>
          <g>
            <polygon class="cls-15" points="28.43 100.92 34.2 100.92 34.2 76.18 28.4 76.05 28.43 100.92"/>
            <path class="cls-15" d="M30.87,76.1c-.11-2.19-.66-3.76-1.13-4.78-1.22-2.62-3.58-5.13-3.62-5.18h0c-4.76.41-5.97,5.51-5.97,5.51l7.83,4.39c.96.02,1.93.04,2.89.05Z"/>
            <path class="cls-15" d="M30.99,76.11c.21-1.29.66-3.08,1.63-5.04,1.15-2.31,2.59-3.91,3.62-4.9,0,0,5.21.56,5.56,5.62-2.38,1.5-4.75,3-7.13,4.5"/>
            <path class="cls-5" d="M28.43,84.21v16.54"/>
            <path class="cls-5" d="M34.2,100.75v-16.65"/>
            <rect class="cls-12" x="17.45" y="84.13" width="27.7" height="3.22"/>
            <path class="cls-5" d="M34.2,76.3c.86-.33,7.61-4.5,7.61-4.5-.41-5.18-5.39-5.65-5.39-5.65-3.08.35-5.56,10.03-5.56,10.03.12-5.09-4.74-10.03-4.74-10.03-.62.09-3.02.53-4.67,2.66-.83,1.08-1.16,2.17-1.29,2.85,1.43.67,2.92,1.43,4.46,2.27,1.35.75,2.63,1.5,3.82,2.25-.18-.79-.62-2.2-1.72-3.61-1-1.28-2.11-2.01-2.8-2.4"/>
            <path class="cls-5" d="M33.73,76.18s1.62-4.92,4.5-5.92"/>
            <path class="cls-5" d="M28.43,76.18v7.87l5.77-.12v-7.75"/>
            <polygon class="cls-2" points="17.45 84.13 17.45 100.92 45.15 100.92 45.15 83.93 17.45 84.13"/>
            <rect class="cls-2" x="16.15" y="76.18" width="30.3" height="7.75"/>
          </g>
        </g>
        <polygon class="cls-9" points="33.16 141.64 38.96 141.64 63.26 135.33 63.26 65.23 33.16 58.91 33.16 141.64"/>
        <path class="cls-7" d="M63.26,135.33v-70.1"/>
        <path class="cls-7" d="M63.26,135.33l-24.31,6.31h-5.8V58.91c10.03,2.1,20.07,4.21,30.1,6.31"/>
        <path class="cls-7" d="M36.06,141.64V59.51"/>
      </g>
    </g>
    <g id="outline-2" data-name="outline">
      <path class="cls-17" d="M38.62,95.2v8.7h4.16v-8.23c-1.39-.16-2.77-.31-4.16-.47Z"/>
      <path class="cls-6" d="M40.7,101.74c.17,0,.31-.16.31-.35s-.14-.35-.31-.35-.31.16-.31.35.14.35.31.35c-.14,0-.25.13-.25.28s.11.28.25.28.25-.13.25-.28-.11-.28-.25-.28Z"/>
      <ellipse class="cls-6" cx="40.7" cy="98.58" rx="1.33" ry="1.44"/>
    </g>
    <g id="light">
      <g>
        <path class="cls-10" d="M67.79,101.63c2.13-.44,5.18-.68,8.08-.68,4.5,0,7.41.82,9.44,2.66,1.65,1.45,2.57,3.68,2.57,6.2,0,4.31-2.71,7.16-6.15,8.33v.15c2.52.87,4.02,3.19,4.79,6.58,1.07,4.55,1.84,7.7,2.52,8.95h-4.36c-.53-.92-1.26-3.73-2.18-7.79-.97-4.5-2.71-6.2-6.53-6.34h-3.97v14.13h-4.21v-32.19ZM72,116.49h4.31c4.5,0,7.36-2.47,7.36-6.2,0-4.21-3.05-6.05-7.5-6.1-2.03,0-3.48.19-4.16.39v11.91Z"/>
        <path class="cls-10" d="M121.87,117.17c0,11.23-6.83,17.18-15.15,17.18s-14.67-6.68-14.67-16.55c0-10.36,6.44-17.14,15.15-17.14s14.67,6.83,14.67,16.51ZM96.56,117.7c0,6.97,3.77,13.21,10.4,13.21s10.46-6.15,10.46-13.55c0-6.48-3.39-13.26-10.41-13.26s-10.45,6.44-10.45,13.6Z"/>
        <path class="cls-10" d="M155.24,117.17c0,11.23-6.83,17.18-15.15,17.18s-14.67-6.68-14.67-16.55c0-10.36,6.44-17.14,15.15-17.14s14.67,6.83,14.67,16.51ZM129.92,117.7c0,6.97,3.77,13.21,10.41,13.21s10.45-6.15,10.45-13.55c0-6.48-3.39-13.26-10.41-13.26s-10.45,6.44-10.45,13.6Z"/>
        <path class="cls-10" d="M188.22,119.5c-.24-4.55-.53-10.02-.48-14.09h-.15c-1.11,3.82-2.47,7.89-4.11,12.39l-5.76,15.83h-3.19l-5.28-15.54c-1.55-4.6-2.86-8.81-3.78-12.68h-.1c-.1,4.07-.34,9.53-.63,14.42l-.87,13.99h-4.02l2.27-32.62h5.37l5.57,15.78c1.36,4.02,2.47,7.6,3.29,10.99h.15c.82-3.29,1.98-6.87,3.44-10.99l5.81-15.78h5.37l2.03,32.62h-4.11l-.82-14.33Z"/>
      </g>
      <g>
        <path class="cls-10" d="M94.7,95.5c-1.89.67-5.61,1.79-10.02,1.79-4.94,0-9-1.26-12.2-4.31-2.81-2.71-4.55-7.07-4.55-12.15.05-9.73,6.73-16.84,17.67-16.84,3.77,0,6.73.82,8.13,1.5l-1.02,3.44c-1.74-.77-3.92-1.4-7.21-1.4-7.94,0-13.12,4.94-13.12,13.12s4.99,13.17,12.58,13.17c2.76,0,4.65-.39,5.61-.87v-9.73h-6.63v-3.39h10.75v15.69Z"/>
        <path class="cls-10" d="M105.37,64.33v32.62h-4.21v-32.62h4.21Z"/>
        <path class="cls-10" d="M112.73,64.33h17.57v3.54h-13.36v10.84h12.34v3.48h-12.34v14.76h-4.21v-32.62Z"/>
        <path class="cls-10" d="M142.51,67.91h-9.92v-3.58h24.15v3.58h-9.97v29.04h-4.26v-29.04Z"/>
      </g>
    </g>
  </g>
</svg>