<?xml version="1.0" encoding="UTF-8"?>
<svg xmlns="http://www.w3.org/2000/svg" xmlns:xlink="http://www.w3.org/1999/xlink" viewBox="0 0 202.94 156.55">
  <defs>
    <style>
      .cls-1, .cls-2, .cls-3, .cls-4, .cls-5, .cls-6, .cls-7, .cls-8, .cls-9, .cls-10 {
        stroke-linecap: round;
      }

      .cls-1, .cls-2, .cls-3, .cls-4, .cls-5, .cls-7, .cls-8, .cls-9, .cls-10, .cls-11 {
        stroke: #231f20;
      }

      .cls-1, .cls-2, .cls-3, .cls-4, .cls-5, .cls-9 {
        fill: none;
      }

      .cls-1, .cls-2, .cls-3, .cls-4, .cls-7, .cls-8, .cls-9, .cls-10, .cls-11 {
        stroke-linejoin: round;
      }

      .cls-12 {
        fill: url(#linear-gradient);
      }

      .cls-12, .cls-13, .cls-14, .cls-15, .cls-16, .cls-17, .cls-18, .cls-19, .cls-20, .cls-21, .cls-22, .cls-23, .cls-24, .cls-25, .cls-26, .cls-27, .cls-28, .cls-29, .cls-30, .cls-31, .cls-32, .cls-33 {
        stroke-width: 0px;
      }

      .cls-2 {
        stroke-width: .1px;
      }

      .cls-13, .cls-7 {
        fill: #ffd739;
      }

      .cls-14 {
        fill: #898989;
      }

      .cls-3 {
        stroke-width: .15px;
      }

      .cls-4, .cls-8 {
        stroke-width: .5px;
      }

      .cls-15 {
        fill: #96ca4d;
      }

      .cls-16, .cls-11 {
        fill: #e5e5e5;
      }

      .cls-5, .cls-6 {
        stroke-miterlimit: 10;
      }

      .cls-6 {
        stroke: #c52126;
      }

      .cls-6, .cls-31 {
        fill: #c52126;
      }

      .cls-17 {
        fill: #9e1c20;
      }

      .cls-18 {
        fill: #c6c6c5;
      }

      .cls-19 {
        fill: #b3b3b3;
      }

      .cls-20 {
        fill: #232323;
      }

      .cls-8, .cls-21 {
        fill: #fff;
      }

      .cls-22 {
        fill: url(#linear-gradient-2);
      }

      .cls-9, .cls-11 {
        stroke-width: .25px;
      }

      .cls-23 {
        fill: #3160ad;
      }

      .cls-24 {
        fill: #231f20;
      }

      .cls-25 {
        fill: #72bf44;
      }

      .cls-26 {
        fill: #184ba0;
      }

      .cls-10 {
        fill: #a13b22;
      }

      .cls-27 {
        fill: #a96b28;
      }

      .cls-28 {
        fill: #ee2465;
      }

      .cls-29 {
        fill: #3a3a3a;
      }

      .cls-30 {
        fill: #9c5a25;
      }

      .cls-32 {
        fill: #b71e41;
      }

      .cls-33 {
        fill: #7f4f20;
      }
    </style>
    <linearGradient id="linear-gradient" x1="44.66" y1="68.06" x2="45.51" y2="68.06" gradientUnits="userSpaceOnUse">
      <stop offset=".08" stop-color="#be5c27"/>
      <stop offset="1" stop-color="#000"/>
    </linearGradient>
    <linearGradient id="linear-gradient-2" x1="230.14" y1="56.24" x2="230.77" y2="56.24" gradientTransform="translate(371.76 -34.08) rotate(172.3) scale(.88 -1.11)" xlink:href="#linear-gradient"/>
  </defs>
  <g id="Layer_1" data-name="Layer 1">
    <path class="cls-23" d="M141.33,142.84s6.65-12.5,22.72.84l1.58.41s8.49-10.19,21.99,0l3.44-6.35-3.55-23.91,1.88-4.28-2.42-3.9,1.09-2.34.87-2.42-1.49-.62-3.88-3.29s-32.82-.79-34.28-2.21l-5.34,2.69.93,4.19-2.96,5.91,1.72,4.29-3.8,7.44,2.56,3.68-3.13,11.72,2.05,8.15Z"/>
    <polygon class="cls-16" points="143.76 97.25 149.82 94.77 149.57 87.05 142.09 82.24 139.97 87.64 141.57 88.46 139.85 93.27 143.76 97.25"/>
    <polygon class="cls-16" points="183.53 96.66 188.76 101.38 191.35 91.02 188.94 88.42 189.66 85.1 187.44 81.42 182.14 88.17 183.53 96.66"/>
    <polygon class="cls-16" points="157.84 60.37 162.2 58.94 169.51 58.74 173.67 60.38 172.56 63.93 170.22 66.93 166.89 67.49 162.82 66.55 159.86 64.44 158.13 61.52 157.84 60.37"/>
    <path class="cls-19" d="M149.82,94.35s25.09,4.47,33.71,2.31l-1.68-8.73,6.45-8.16s-7.53-15.71-9.25-16.19l-4.99-3.01-1.2,2.88-2.06,2.76-2.29,1.01-4.36-.07-3.56-2-2.45-3.63-.74-.95-7.01,3.36-9.61,17.42,8.8,5.69.25,7.3Z"/>
    <path class="cls-16" d="M152.73,48.32h3.09l1.4,4.44,5.95,2.82h4.83l3.63-1.93.38-.18,1.77,2.11-2.7,3.29s-10.21.16-10.52.3-6.63-4.07-6.63-4.07l-1.19-6.78Z"/>
    <polygon class="cls-16" points="173.29 47.32 173.05 52.42 175.79 53.39 175.66 46.11 173.29 47.32"/>
    <polygon class="cls-16" points="151.64 32.57 175.96 32.57 175.96 42.8 172.01 46.11 171.11 52 168.26 53.75 163.47 53.82 158.16 51.62 157.84 46.99 152.6 44.77 151.64 32.57"/>
    <polygon class="cls-19" points="158.53 34.85 155.2 40.03 158.85 45.41 161.76 43.56 162.34 38.56 158.53 34.85"/>
    <polygon class="cls-19" points="166.47 38 169.23 34.85 172.56 37.82 172.56 42.38 169.82 44.77 167.47 42.61 166.47 38"/>
    <path class="cls-19" d="M167.29,46.85c.23-1.39-3.09-3.3-3.09-3.3-2.17,1.16-1.86,2.99-1.86,2.99,1.27,1.72,2.16-.25,2.16-.25,0,0,2.48,2.41,2.79.56Z"/>
    <path class="cls-31" d="M135.2,22.56s11.78,8.32,11.85,8.68c0,0,2.91-3.6,3.24-3.5,0,0-7.65-15.05-8.03-14.85,0,0-.94-.54-7.06,9.68Z"/>
    <path class="cls-31" d="M152.36,26.38l2.49-.97-.9-9.49s-5.67,1.41-6.79,1.28l5.21,9.18Z"/>
    <path class="cls-21" d="M145.48,27.8c-.06.11-.13.25-.24.39-.11.15-.22.26-.32.35-1.02-.7-2.07-1.46-3.13-2.27-.89-.68-1.74-1.35-2.55-2.01.04-.11.11-.24.22-.39.12-.16.24-.27.34-.35.89.61,1.79,1.26,2.71,1.95,1.05.78,2.04,1.56,2.97,2.33Z"/>
    <path class="cls-28" d="M152.82,32.23s-.72-3.33,1.47-3.69l1.32.07,1.46-1.49s2.41-.28,2.9-.12.93-.62.93-.62c0,0,1.24-.97,2.21-.85s2.46.01,2.6.41,1.44,1.18,1.42,1.46c0,0,4.33-4.58,6,2.05,0,0,1.74.68,1.67,2.77h-21.99Z"/>
    <path class="cls-21" d="M152.27,23.98c-.05.04-.12.08-.2.12-.08.04-.16.07-.22.08-.29-.55-.59-1.12-.88-1.72-.24-.5-.47-1-.68-1.48.04-.04.11-.08.19-.12.09-.04.17-.07.23-.08.26.47.51.97.76,1.48.29.59.55,1.16.8,1.71Z"/>
    <path class="cls-16" d="M178.85,54.44s.65-1.3.29-1.84-.6-1-.09-.96.31,0,.31,0l-1.58-1.09-.74-.8.22-.17.61.17,1.01.3,1.41.42,1.23.05.05-.44-.65-.84-.31-.29.96-.24.17-.16s-7.08-6.36-2.54-5.78l5.7.18s-.88-.93.21-.97.81-.53.81-.53l-.58-1.39-1.9-2.92-1.87-2.5-1.23-1.56-.51-1.09s-.07-.75.84-.44,2.47,1.06,2.47,1.06l2.27,1.36,2.56,1.35s.39-.52.28-.64-.56-1.14-.56-1.14l-.42-.51.75-.37.51-.47.02-.42-.42-.73-3.56-2.78-5.42-4.58s-.62-1.74,1.24-1.26,3.52,1.24,3.52,1.24c0,0,2.09.8,2.79.77s1.56-.31,1.56-.31l.11-.18-1.29-2.36-1.75-3.53-1.04-2.44-.7-2.46.13-1.89.76-3.77s1.38-6.95,5.51-7.31c0,0,1.77-.64,5.11,2.82,0,0,1.78,2.51,1.91,5.31.13,2.8-.33,4.65-.33,4.65l-2.1,2.85s.86,2.93.51,4.19-1.35,3.44-1.61,3.53.29,2.11-.96,2.67.67,2.42.67,2.42l.84,1.04-1.85.18s1.89,2.95,7.14,4.53c0,0,1.05.89-.7,1.08s-4.23-.59-4.23-.59l-4.06-.87s.67,1-.13,1.18-.09.62-.09.62c0,0,.07.8-.6.64,0,0,7.43,3.67,4.42,3.53s1.89,1.97,1.89,1.97l6.58,3.9s1.39,1.38-.79,2.16-5.24,1.16-5.24,1.16l-2.36.78s-3.6-.01-5.02.66c0,0-3.16.25-2.57,1.33l.76,1.05-.99-.24s3.15,2.5,3.36,3,.33.87.33.87l-.38.36-.77.1-.65-.49-1.79-1.57-3.78-2.71s-1.04-.58-.11.65,1.37,2.02,1.37,2.02l-.02.32-.65-.12-1.85-1.41s-1.31,1.09-1.39,1.24-1.01-.5-1.01-.5Z"/>
    <path class="cls-19" d="M187.04,4.28s-.82.6-.96,1.19-.51,2.31-.51,2.31l.14,2.74.59,1.59.62.64h.49l.58-.5.53-1.5.24-1.76-.04-1.75-.38-1.74-.39-.71-.39-.42-.51-.09Z"/>
    <path class="cls-19" d="M191.88,4.79s-1.1.98-1.12,1.58-.46,1.79-.32,2.15.13,1.57.13,1.57l.14,1,.67,1.16.5.23h.52l.45-.32.37-.65.53-1.34.09-1.5-.1-1.46-.29-1.19-.53-.94-.63-.3h-.4Z"/>
    <path class="cls-19" d="M189.16,13.81s-1.32.59-.56,1.66,1.89,0,1.89,0l.23-.71-.2-.62-.69-.38-.66.04Z"/>
    <path class="cls-29" d="M140.7,144.09v5.85l7.35,3.88,10.06.68,3.97-3.62,3.94,3.62s5.93,1.47,6,1.49,6.67-.16,6.91-.16,5.55-.89,5.55-.89l3.4-5.21-.2-5-5.8,4.77-12.79.54-4.79-3.63-.62-1.59-8.47,4.47s-10.38-1.47-10.29-1.56-4.21-3.65-4.21-3.65Z"/>
    <path class="cls-19" d="M140.7,144.09l4.68,3.75,10.08,1.6,8.38-5.03.44,2.36,5.15,3.27,12.23-.6,6.01-4.71s-8.74-10.04-21.71-1.26l-2.2-.03-5.3-3.8-5.38-1.54-5.38-.18-4.71,2.73-2.29,3.44Z"/>
    <path class="cls-26" d="M165.17,113.78l-.8,29.98c-.02-.51-6.19-4.1-6.19-4.1,2.59-.81,5.31-25.88,5.31-25.88h1.68Z"/>
    <path class="cls-26" d="M181.05,140.43s6.83-36.72,5.7-40.77l2.03,1.72-1.69,4.47,2.31,3.69-1.71,4.24,3.19,24.35-3.11,5.84-6.72-3.54Z"/>
    <path class="cls-14" d="M177.53,74.96s8.17,7.07,7.42,9.64-3.15,3.11-3.15,3.11l-4.26-12.75Z"/>
    <path class="cls-14" d="M150.6,79.89s1.45,14.11,3.58,15.48l-4.36-.38s-.08-15.33.78-15.11Z"/>
    <path class="cls-18" d="M183.57,86.75s2.66,11.29,1.75,11.53-1.75-1.31-1.75-1.31l-1.43-9.05,1.43-1.17Z"/>
    <path class="cls-20" d="M183.18,148.3s-2.65,6.67-3.45,7.1,4.83-.58,4.83-.58l3.51-5.38-.39-4.71-4.5,3.56Z"/>
    <path class="cls-14" d="M160.14,140.74s-.06,5.93-1.84,7l5.6-3,.1-1.29-3.87-2.7Z"/>
    <path class="cls-14" d="M177.61,149.82c3.3-2.09,6.61-4.18,9.91-6.26v1.18l-5.08,4.3-4.83.79Z"/>
    <path class="cls-32" d="M170.16,26.03s-7.19,6.2-11.39,6.2l16.05.09-.25-1.44-.78-1.01-.7-.26-.17-1.51-.62-1.06-.85-.72-1.28-.27Z"/>
    <path class="cls-18" d="M171.15,53.9c-1,1.47-2.12,3-3.36,4.56-2.18,2.72-4.36,5.06-6.43,7.05,1.45.62,2.9,1.25,4.35,1.87,1.19-.09,2.39-.17,3.58-.26,1.15-1.07,2.3-2.13,3.44-3.2.22-1.13.43-2.25.65-3.38-.75-.51-1.49-1.02-2.24-1.53.84-1.03,1.68-2.06,2.53-3.09.64-.6,1.29-1.2,1.93-1.8-1.16-.27-2.33-.54-3.49-.8-.32.2-.64.4-.96.6Z"/>
    <path class="cls-14" d="M156.59,42.08s4.51,1.13,5.38-.4l-.2,1.77-3.01,1.85-2.18-3.21Z"/>
    <path class="cls-14" d="M167,40.9s3.7,1.43,5.55,0v1.48l-2.65,2.3-2.62-2.25-.29-1.54Z"/>
    <path class="cls-17" d="M148.76,29.09s-6.98-14.59-8.04-14.85l1.54-1.36,8.03,14.85-1.53,1.35Z"/>
    <path class="cls-17" d="M152.36,16.39s1,9.02,1.58,9.24.91-.22.91-.22l-1.05-9.44-1.44.42Z"/>
    <path class="cls-24" d="M161.55,71.8v8.08h-1.04v-8.08h1.04Z"/>
    <g>
      <path class="cls-24" d="M156.54,83.97h-.02l-1.36.73-.2-.8,1.7-.91h.9v7.8h-1.02v-6.81Z"/>
      <path class="cls-24" d="M163.67,90.79v-2.12h-3.62v-.7l3.48-4.98h1.14v4.85h1.09v.83h-1.09v2.12h-1ZM163.67,87.84v-2.6c0-.41.01-.82.04-1.22h-.04c-.24.46-.43.79-.65,1.15l-1.91,2.65v.02h2.55Z"/>
      <path class="cls-24" d="M167.29,84.98l1.27,3.43c.13.38.28.84.37,1.19h.02c.11-.35.23-.79.37-1.21l1.15-3.41h1.12l-1.58,4.14c-.75,1.99-1.27,3.01-1.99,3.63-.52.46-1.03.64-1.3.68l-.26-.89c.26-.08.61-.25.92-.52.29-.23.65-.63.89-1.17.05-.11.08-.19.08-.25s-.02-.14-.07-.28l-2.15-5.35h1.15Z"/>
      <path class="cls-24" d="M177.69,87.84c0,2.15-1.49,3.08-2.89,3.08-1.57,0-2.78-1.15-2.78-2.99,0-1.94,1.27-3.08,2.88-3.08s2.79,1.21,2.79,2.99ZM173.08,87.9c0,1.27.73,2.23,1.76,2.23s1.76-.95,1.76-2.25c0-.98-.49-2.23-1.74-2.23s-1.79,1.15-1.79,2.25Z"/>
    </g>
    <path class="cls-1" d="M140.73,143.91s-.88,5.03,0,5.82,7.24,3.97,7.24,3.97l10.15.79,3.97-3.62s2.02-4.5,1.97-7.06c-.02-.76-16.15-13.85-23.32.09Z"/>
    <polyline class="cls-1" points="141.08 144.09 145.14 147.8 155.26 149.44 164.01 144.64"/>
    <path class="cls-1" d="M162.08,150.88l3.75,3.62,6.44,1.54,12.18-1.06,3.62-5.54-.44-5.35s-13.85-11.69-23.57,1.96"/>
    <path class="cls-24" d="M164.29,145.97s5.57,3.75,5.57,3.75c0,0-.31-.08-.31-.08l12.31-.69s-.3.13-.3.13c0,0,5.72-5.17,5.72-5.17,0,0-.15.23-.15.23.77-2.26,1.9-4.4,3.32-6.31l-.1.36c-.64-8.37-2.86-16.56-3.11-24.97-.02-.26.41-.32.44-.04.87,6.26,1.98,12.41,3,18.64.3,2.09.55,4.18.73,6.28.01.13-.03.26-.1.36-1.35,1.84-2.41,3.88-3.13,6.04-.03.09-.09.17-.15.23l-5.79,5.1c-.09.08-.2.12-.31.13,0,0-12.31.69-12.31.69-.11,0-.22-.03-.31-.08l-5.57-3.75c-.53-.37,0-1.19.56-.83h0Z"/>
    <line class="cls-1" x1="164.38" y1="145.19" x2="165" y2="113.47"/>
    <path class="cls-24" d="M160.19,112.7c3.25.27,6.37.34,9.63.23.11,0,.19.08.19.19,0,.09-.05.16-.13.18-3.15.97-6.67.9-9.78-.21-.21-.07-.14-.41.08-.39h0Z"/>
    <line class="cls-1" x1="164.54" y1="136.88" x2="165.35" y2="144.41"/>
    <path class="cls-24" d="M140.97,142.78l-2.22-8.13c.9-4.34,2.53-8.57,3.82-12.83.06-.18.34-.11.3.08-.47,2.14-.99,4.27-1.5,6.4-.51,2.13-1,4.26-1.65,6.36,0,0,0-.26,0-.26l2.22,8.13c.17.62-.79.9-.96.26h0Z"/>
    <path class="cls-24" d="M142.3,123.05l-2.86-3.47c-.11-.13-.13-.32-.06-.46,1.9-3.9,4.09-7.64,6.42-11.3.07-.11.25-.02.19.1-.83,2-1.76,3.94-2.69,5.89-.95,1.93-1.91,3.86-3,5.72l-.03-.52,2.25,3.89c.08.13-.12.27-.21.15h0Z"/>
    <path class="cls-24" d="M143.18,112.04l-1.72-4.29c-.06-.14-.04-.29.02-.41l2.96-5.91-.04.33-.93-4.19.12.23c-1.04-1.1-2.69-2.92-3.77-3.94-.03-.02-.14-.12-.17-.14.06.06.23.08.29.04-.27.08-.58-.22-.59-.4-.06-.24.04-.53.09-.76.81-2.57,2.02-5.01,3.3-7.37.08-.14.31-.05.26.11-.38,1.39-.84,2.74-1.3,4.09-.32.93-.93,2.58-1.26,3.49-.02.07-.09.25-.1.32-.02-.08,0-.18-.15-.33-.12-.11-.26-.15-.42-.13.25-.03.54.16.71.34.5.45,1.36,1.36,1.84,1.86.05.09,2.24,2.3,2.13,2.38,0,0,.93,4.19.93,4.19.03.12,0,.23-.04.33l-2.96,5.91.02-.41s1.72,4.29,1.72,4.29c.24.59-.68.99-.93.37h0Z"/>
    <path class="cls-24" d="M142.03,88.81l-2.33-.41c-.24-.04-.41-.28-.37-.52,0-.05.03-.11.05-.15,0,0,2.24-5.29,2.24-5.29.26-.6,1.17-.22.92.39,0,0-2.24,5.29-2.24,5.29l-.31-.67,2.15.98c.22.09.11.43-.12.39h0Z"/>
    <path class="cls-1" d="M143.95,97.46l5.87-2.69s15.88,2.6,33.75,2.21"/>
    <path class="cls-24" d="M187.27,114.32l1.66-4.96.04.45-2.53-4.84c-.06-.11.11-.22.18-.11,0,0,3.2,4.43,3.2,4.43.1.13.1.31.04.45l-2.25,4.72c-.09.2-.41.07-.33-.14h0Z"/>
    <path class="cls-24" d="M186.34,107.4c1.46-5.42,3.88-10.75,4.51-16.33,0,0,.13.29.13.29,0,0-2.17-2.34-2.17-2.34-.11-.11-.15-.27-.13-.41l.49-3.57.07.33-2.34-3.88c-.14-.24-.07-.54.17-.69.24-.14.54-.07.69.17l2.34,3.88c.22,0-.44,3.77-.42,3.9,0,0-.13-.41-.13-.41l2.17,2.34c.08.08.13.18.13.29-.07,3.7-1.53,7.14-2.61,10.62-.77,1.93-1.63,4.08-2.52,5.95-.09.21-.44.09-.37-.14h0Z"/>
    <path class="cls-24" d="M177.64,74.91c3.32,6.91,5.53,14.39,6.43,22,0,0-.17-.32-.17-.32l5.21,4.41c.5.41-.16,1.19-.65.76,0,0-5.21-4.41-5.21-4.41-.1-.08-.16-.2-.17-.32-.86-5.63-2.13-11.19-3.83-16.62-.57-1.81-1.16-3.63-1.83-5.41-.06-.13.15-.24.22-.1h0Z"/>
    <path class="cls-24" d="M149.32,94.83c-.7-6.52-.18-13.36,2.5-19.4.08-.19.39-.07.31.13-2.12,6.13-2.27,12.76-1.82,19.17.05.63-.91.74-.99.1h0Z"/>
    <path class="cls-1" d="M149.57,87.27l-8.8-5.91s8.67-16.9,10-17.87l9.9-4.37s7.65-1.06,10.19,0c.94-1.07,3.8-3.94,4.74-5.01"/>
    <path class="cls-24" d="M188.82,89.03c-.55-.55-1.18-1.53-1.68-2.15-.15-.18.11-.43.29-.28.61.52,1.57,1.16,2.11,1.73.41.46-.27,1.11-.72.7h0Z"/>
    <path class="cls-24" d="M150.04,64.98c.68,1.96,1.31,4.1,2.65,5.73.12.12-.06.32-.19.2-1.58-1.54-2.51-3.61-3.4-5.6-.1-.26.03-.55.28-.65.27-.1.57.04.66.31h0Z"/>
    <path class="cls-24" d="M178.98,66.26c-.39,1.5-.98,2.93-1.82,4.24-.04.07-.13.09-.2.04-.06-.04-.08-.11-.06-.17.25-.7.64-1.54.92-2.11.28-.71.52-1.43.85-2.12.08-.18.37-.08.31.11h0Z"/>
    <path class="cls-1" d="M170.86,59.12s6.63,2.68,9.1,5.29,8.32,15.35,8.32,15.35c-2.11,2.89-4.22,5.77-6.32,8.66"/>
    <path class="cls-1" d="M157.84,60.37s.74,6.05,8.15,7.04c5.61.75,6.98-4.1,7.68-7.03"/>
    <polyline class="cls-1" points="162.2 58.94 162.5 62.77 166.17 64.3 169.32 62.24 169.08 58.74"/>
    <path class="cls-1" d="M160.67,59.12l-6.5-4.09s-1.5-5.15-1.44-6.71h3.09l1.4,4.44,6.21,2.94,4.91-.13,3.84-2.27"/>
    <path class="cls-1" d="M173.05,52.42c.08-1.7.16-3.39.24-5.09l2.35-1.53.32,7.38"/>
    <path class="cls-1" d="M171.11,52c.31-2.07.63-4.14.94-6.21l3.9-3v-10.37h-24.33l1.1,12.49,5.11,2.25.48,4.54c1.72.71,3.43,1.41,5.15,2.12h4.56c.95-.53,1.89-1.06,2.84-1.59"/>
    <path class="cls-4" d="M163.5,49.99c0,1.28-.02,2.56-.03,3.84"/>
    <path class="cls-4" d="M165.68,50.54c-.01,1.1-.03,2.19-.04,3.29"/>
    <line class="cls-4" x1="167.67" y1="50.43" x2="167.67" y2="53.72"/>
    <line class="cls-4" x1="170.22" y1="48.84" x2="170.22" y2="52.59"/>
    <line class="cls-4" x1="161.14" y1="49.49" x2="161.14" y2="52.87"/>
    <line class="cls-4" x1="159.26" y1="48.05" x2="159.26" y2="52.09"/>
    <path class="cls-4" d="M164.19,43.56c-1.23.67-1.97,1.68-1.84,2.59.05.34.25.96.74,1.09.47.12,1.08-.24,1.4-.94,1.08,1.03,2.12,1.49,2.54,1.17.32-.24.28-.9.17-1.28-.07-.27-.24-.64-1.21-1.42-.42-.34-1.02-.78-1.81-1.21Z"/>
    <polygon class="cls-4" points="158.53 34.85 155.2 40.03 158.85 45.41 161.76 43.56 162.34 38.56 158.53 34.85"/>
    <polygon class="cls-4" points="166.47 38 167.29 42.44 169.82 44.77 172.56 42.38 172.56 37.82 169.23 34.85 166.47 38"/>
    <path class="cls-4" d="M150.29,27.74c-.38-1.74-8.03-14.85-8.03-14.85-2.26.82-7.06,9.68-7.06,9.68,1.44.44,11.85,8.68,11.85,8.68.41-.64.97-1.39,1.71-2.15.53-.54,1.05-.99,1.53-1.35Z"/>
    <path class="cls-4" d="M153.94,15.93c.13,2.89.9,9.49.9,9.49-1.04.09-2.49.97-2.49.97-.33-1.41-5.21-9.18-5.21-9.18,1.09-.06,2.32-.2,3.66-.46,1.16-.23,2.21-.52,3.13-.82Z"/>
    <path class="cls-24" d="M152.73,32.34c-1.38-2.43,1.05-5.68,3.45-3.4.08.09-.04.22-.13.15-2.26-1.43-3.88.91-2.87,3.02.15.29-.31.51-.45.22h0Z"/>
    <path class="cls-24" d="M160.7,27.38c-1.78-.65-3.84-.26-4.98,1.31-.19.25-.58-.04-.4-.29,1.14-1.75,3.73-2.34,5.48-1.21.11.07.03.24-.1.2h0Z"/>
    <path class="cls-24" d="M160.16,26.81c1.96-2.63,6.19-1.85,7.41,1.05.06.12-.12.23-.2.12-1.61-2.37-4.84-3.21-6.83-.84-.2.25-.59-.08-.38-.32h0Z"/>
    <path class="cls-4" d="M167.19,27.26c.8-1.04,2.08-1.56,3.28-1.33,1.54.3,2.72,1.8,2.67,3.57"/>
    <path class="cls-24" d="M172.21,29.57c1.2-.49,2.59.43,2.76,1.69.05.35.21,1.45-.33,1.4-.12-.03-.2-.15-.19-.28.3-1.38-.66-2.96-2.21-2.67-.09.01-.12-.12-.03-.15h0Z"/>
    <path class="cls-24" d="M153.94,32.2c.07-1.58,1.2-3.77,2.48-1.51.07.12-.1.24-.19.13-1.32-1.67-1.56.32-1.8,1.46-.05.3-.53.23-.49-.07h0Z"/>
    <path class="cls-4" d="M159.02,32.23c.19-1.28-.53-2.33-1.38-2.49-.75-.13-1.4.48-1.49.56"/>
    <path class="cls-4" d="M156.93,27.36c.14.07.73.36,1.02,1.06.29.69.1,1.3.05,1.45"/>
    <path class="cls-4" d="M173.05,32.23s-1.82-4.1-3.64.2"/>
    <path class="cls-24" d="M158.07,31.13c.58-.9,1.4-1.62,2.32-2.16.12-.07.27-.04.34.07.07.11.04.25-.06.33-.41.33-.87.57-1.27.9-.41.3-.78.66-1.15,1.01-.1.1-.26-.04-.19-.15h0Z"/>
    <path class="cls-4" d="M163.79,32.43c-.32-.87-.87-1.89-1.9-2.44-.67-.36-1.17-.33-1.31-.7-.27-.71,1.09-2.3,2.32-2.37,1.47-.08,3.12,2.01,3.92,5.31"/>
    <path class="cls-24" d="M162,30.59c1.09-1.03,2.93-1.24,4.23-.47.05.03.07.1.04.15-.03.04-.08.06-.12.05-1.38-.37-2.74-.17-4,.48-.12.07-.25-.11-.14-.2h0Z"/>
    <path class="cls-24" d="M170.94,28c-1.99-.19-3.83,1.14-4.2,3.09-.06.31-.53.23-.49-.08.24-2.19,2.63-3.77,4.72-3.15.08.02.06.15-.03.15h0Z"/>
    <path class="cls-4" d="M168.76,28.23c.26.2.72.62,1.05,1.31.28.59.34,1.13.35,1.44"/>
    <path class="cls-9" d="M178.62,54.44s.93-.04.52-1.84c0,0-1.09-1.22.3-.91,0,0-5.12-3.18-.41-1.59s1.58-1.17,1.58-1.17c0,0,1.12-.26,1.12-.4s-6.62-5.76-2.98-5.78,6.38.2,6.38.2c0,0-1.7-1.08.42-.99s-5.23-8.91-5.23-8.91c0,0-2.27-3.26,2.71-.44s4.92,2.67,4.92,2.67c0,0,.99-.44-.73-2.32"/>
    <path class="cls-9" d="M187.23,32.87s2.87-.44.18-2.41-8.27-6.81-8.27-6.81c0,0-1.15-2.62,3.6-.44s5.62.68,5.62.68c0,0-5.14-8.93-4.81-11.56s2.05-14.96,8.74-11.65c6.68,3.31,4.39,12.22,4.39,12.22,0,0-1.65,2.43-2.05,2.82s2.16,3.35-1.21,7.83c0,0,.26,1.99-.99,2.65s1.61,3.39,1.61,3.39l-1.81.14s2.74,3.49,5.69,4.08,1.65,1.88-.44,1.65-6.4-1.68-7.41-1.52c0,0,1.5.82-.33,1.32,0,0,1.34,1.21-.4,1.06,0,0,6.75,3.07,4.92,3.55,0,0-1.48.02-1.3.31s8.56,4.68,9.2,5.45c0,0,3.11,2.18-4.08,3.11,0,0-3.09.6-4.04,1.08,0,0-2.87-.24-5.12.77,0,0-4.63.04-1.39,2.43,0,0-.68-.25-1.5-.44,0,0,6.33,4.54,2.67,4.41,0,0-8.14-6.95-6.44-4.3,0,0,2.43,2.91,1.26,2.51s-2.27-1.49-2.27-1.49c0,0-1.24.68-1.24,1.34"/>
    <ellipse class="cls-9" cx="187.18" cy="8.54" rx="1.61" ry="4.26"/>
    <ellipse class="cls-9" cx="192.14" cy="8.66" rx="1.7" ry="3.87"/>
    <ellipse class="cls-9" cx="189.55" cy="14.84" rx="1.16" ry="1.07"/>
    <polygon class="cls-27" points="53.17 63.61 55.97 67.93 62.78 72.2 69.08 73.38 73.29 73.59 78.96 72.2 83.37 69.38 86.47 66.16 89.21 62.67 90.86 58.83 91.84 52.8 91.37 48.01 90.21 44.91 88.52 41.09 85.96 37.83 83.37 35.85 81.6 34.34 77.52 32.44 73.65 31.65 69.83 31.65 65.92 31.96 62.44 33 60.55 33.92 57.47 35.98 54.28 39.17 52.84 41.49 50.85 45.23 49.97 48.4 49.65 54.23 49.97 57 52.33 62.9 53.17 63.61"/>
    <path class="cls-33" d="M67.72,73.38c-.25-.94,6.51-2.65,12.98-7.26,5.27-3.76,8.7-8.27,10.91-11.89-.28,2.19.71,8.26-3.33,9.98-2.41,1.03-1.28,3.83-6.52,6.2-3.44,1.55-6.74,2.76-6.74,2.76h0c-5.71.83-7.19.63-7.3.21Z"/>
    <path class="cls-33" d="M75.3,51.61c1.11.31,2.61.61,4.41.62,2.07.02,3.78-.34,4.97-.7-.99.69-1.97,1.38-2.96,2.06h-3.43l-2.64-1.15c-.12-.28-.24-.56-.36-.84Z"/>
    <path class="cls-33" d="M49.65,49.81c.89.31,2.1.61,3.55.62,1.66.02,3.04-.34,4-.7-.79.69-1.59,1.38-2.38,2.06h-2.76l-2.12-1.15c-.1-.28-.19-.56-.29-.84Z"/>
    <path class="cls-15" d="M65.47,75.04l18.36-2.66c1.04.56,2.08,1.12,3.11,1.68.49.4.98.81,1.46,1.21,1.69,5.6,3.38,11.21,5.07,16.81.73,1.08,2.58,3.95,3.62,6.94.55,1.59,1.14,3.97,1.22,4.31.14.61.25,1.11.32,1.47.13,1.05.25,2.1.38,3.15l-.56,2.65-1.9,2.6s-2.35.89-3.25.58c-.9-.31-3.6-1.34-4.22-1.78s-2.97-2.87-2.97-2.87l-1.01,27.11-.74,15.57s-5.17,1-6.9.5c-1.72-.5-7.51-1.45-7.51-1.45l-9.29-1.54-.33-1.65-4.18.66s-5.5.31-6.75.18c-1.25-.13-9.82-.91-9.82-.91l-1.57-4.56c.11-1.02.31-2.18.64-3.43.45-1.71,1.03-3.16,1.59-4.32.35-.69.96-1.7,2-2.68,0,0,.58-.55,1.28-1.01,2.37-1.58,5.95-1.8,6.67-1.84.05-.78.1-1.56.14-2.34.04-.37.07-.74.11-1.11l-.23-5.55-.06-5.92-2.55-.04s-4.75-.95-5.12-1.91-1.61-2.14-1.61-2.14l-1.09-2.6-.41-3.15.87-2.6,2.07-1.82,2.11-.67,1.16-.13,1.22-4.28,2.18-6.24,2.32-5.48,2.26-4.58.91-.94v-1.44l10.98-1.79Z"/>
    <path class="cls-13" d="M55.04,66.5c-.18-.18-.46-.42-.85-.58-1.97-.82-4.59,1.26-5.82,2.65-.54.61-1.34,1.68-1.86,3.31,1.65,2.26,3.06,2.96,3.98,2.77,2-.41,6.27-3.8,6.27-3.8l1.2-1.76-2.91-2.59Z"/>
    <path class="cls-13" d="M53.17,64.38h-.01c-2.28,3.66-5.54,5.47-7.87,4.69-.48-.16-1.16-.51-1.84-1.39-.05-.29-.09-.7-.18-1.19-.16-.87-.15-1.38-.15-2.15,0-.01.01-.02.01-.04.04-.58.52-1.19,1.22-1.77h.02c2.14-1.8,6.29-3.38,6.29-3.38.02.07.05.15.08.22l2.19,4.51.24.5Z"/>
    <path class="cls-7" d="M89.31,63.55s8.88,5.98,11.22-.18c2.35-6.16-8.35-7.68-8.35-7.68"/>
    <path class="cls-7" d="M92.14,55.17s10.53,1.93,10.22-4.65c-.31-6.58-10.72-3.7-10.72-3.7"/>
    <path class="cls-7" d="M91.74,46.59s10.23-3.16,6.9-8.85c-3.32-5.69-11.22,1.68-11.22,1.68"/>
    <path class="cls-7" d="M87.28,38.88s8.38-6.66,3.22-10.75c-5.16-4.1-9.84,5.64-9.84,5.64"/>
    <path class="cls-7" d="M80.84,33.18s5.14-9.39-1.2-11.16c-6.35-1.78-6.89,9.02-6.89,9.02"/>
    <path class="cls-7" d="M72.71,31.32s1.86-10.54-4.72-10.18c-6.58.35-3.63,10.75-3.63,10.75"/>
    <path class="cls-7" d="M64.38,31.98s-2.59-10.39-8.45-7.39c-5.87,3,1.05,11.3,1.05,11.3"/>
    <path class="cls-7" d="M57.01,36.17s-6.68-8.36-10.76-3.19c-4.08,5.17,5.67,9.83,5.67,9.83"/>
    <path class="cls-7" d="M51.63,42.76s-9.2-5.47-11.2.82c-1.99,6.28,8.77,7.19,8.77,7.19"/>
    <path class="cls-7" d="M49.47,50.86s-10.63-1.23-9.89,5.32c.75,6.55,10.95,2.98,10.95,2.98"/>
    <path class="cls-1" d="M50.48,59.11s-3.9,1.17-6.11,3.41h-.02c-.52.54-.96,1.13-1.22,1.78,0,.02-.01.03-.01.04-.14.34-.22.7-.25,1.07-.03.41.01.8.09,1.14v.03c.19.79.55,1.33.55,1.33.08.14.62,1.02,1.75,1.25,1.1.22,1.93-.35,2.06-.44"/>
    <path class="cls-8" d="M48.93,89.74c.08.31.41.5,1.9,1.11,1.16.48,2.2.63,2.9.69-1.08,4.33-2.17,8.66-3.25,12.99,5.28.57,11.05.96,17.25,1.07,6.23.1,12.04-.1,17.36-.49-.74-2.64-1.37-5.58-1.8-8.79-.14-1.04-.25-2.06-.33-3.05,0,0,2.89.03,5.67-.41,2.71-.43,5.1-1.28,5.09-1.32,0-.01-.17.02-.32.06-1.59-5.22-3.17-10.44-4.76-15.66-1.25-1.37-2.49-2.73-3.74-4.1l-.83.2.84,2.22.72,3.99-1.58,2.63-2.22.94-2.24-.3-1.87-1.57-1.38-2.29-1.18-1.66-.15,2.02-1,3.86-1.31,1.42-2.38.64-2.28-.56-1.13-1.03-.73-1.47-.35-1.57-.11-2.16v-2.45s-.87.54-.87.54l-.86,1.91-1.18,1.52-.83,1.22-1.58.82-1.94.31-2.02-.87-1.69-1.83-.42-.39c-.79,1.57-1.59,3.13-2.38,4.7-.61,1.56-1.21,3.13-1.82,4.69l-.74,1.24c-.23.26-.58.74-.46,1.2Z"/>
    <path class="cls-7" d="M66.15,73.51s-2.41,10.43,4.18,10.42c6.59-.01,4.19-10.54,4.19-10.54"/>
    <path class="cls-7" d="M65.59,72.97c-.07.26-2.38,9.59-7.69,7.89-.24-.08-.49-.18-.74-.3-1.66-.82-2.32-2.06-2.41-3.43-.01-.09-.01-.17-.01-.26-.04-3.44,3.29-7.5,3.29-7.5"/>
    <path class="cls-7" d="M75.02,73.61s2.04,10.51,8.05,7.82c6.02-2.69-.46-11.34-.46-11.34"/>
    <path class="cls-25" d="M84.68,104.94c-.69,9.43-1.1,16.62-1.34,21.24-.38,7.19-.58,12.36-3.06,18.88-1.1,2.9-2.32,5.18-3.22,6.71,1.97.39,3.6.46,4.76.44,1.71-.03,2.39-.24,2.8-.75.43-.53.46-1.21.49-1.88.04-.89-.14-1.6-.29-2.05.09-1.82.19-3.65.28-5.47.24-3.9.47-7.8.71-11.7l.47-13.71.09-7.87c-.32-1.21-.65-2.43-.97-3.64-.05.14-.09.29-.14.43"/>
    <path class="cls-16" d="M89.42,92.46c.2-1.55.3-3.29.19-5.19-.43-7.23-3.64-12.64-5.75-15.56.55.11,1.1.21,1.65.32l3,2.91.29.85c.72,2.61,1.48,5.26,2.28,7.95.78,2.6,1.57,5.16,2.37,7.66-.54.18-1.12.36-1.73.53-.8.22-1.57.4-2.29.53Z"/>
    <path class="cls-7" d="M83.37,69.9s5.96,8.89,10.46,4.08c4.5-4.81-4.83-10.27-4.83-10.27"/>
    <path class="cls-25" d="M67.18,113.42s.04,17.83-2.89,19.51,3.42-1.07,3.42-1.07l.34-.53v-17.91h-.87Z"/>
    <path class="cls-10" d="M57.2,63.49c.44-.53,3.38-3.97,8.39-4.12,5.3-.16,8.55,3.5,8.96,3.98.13.25.74,1.49.19,2.48-.26.48-.82.98-2.28,1.16-3.65.47-6.88-3.04-9.35-2.14-2.61.95-5.33,1.56-6.1.49-.07-.1-.11-.2-.13-.26"/>
    <path class="cls-24" d="M88.52,74.37c1.98,5.92,4.01,11.82,5.95,17.75,1.66,3.86,3.58,8.36,4.46,12.78.43,2.28.68,4.86-.68,6.94-2.15,3.24-7.11,2.72-9.83.5-2.74-2.31-3.59-6.02-4.33-9.3-.48-2.22-.82-4.45-1.06-6.7-.26-2.24-.43-4.49-.51-6.74,0-.07.05-.13.12-.13.87,4.3,1.24,9.03,2.35,13.37.99,4.03,2.28,9.06,6.89,10.07,11.89,1.7,3.76-14.96,1.54-20.39-2-5.93-3.89-11.89-5.85-17.83-.2-.6.74-.95.95-.31h0Z"/>
    <path class="cls-1" d="M50.69,66.58c-.38.13-2.76,1-3.57,3.21-.55,1.49-.13,2.94-.06,3.09.02.04.1.19.24.38,0,0,.71,1.01,2.13,1.38,2.32.6,6.14-2.26,8.52-5.24,0,0,0,0,0,0"/>
    <path class="cls-24" d="M86.87,108.94s-1.75,42.74-1.74,42.75c0,.21-.16.39-.35.44-4.03,1.08-8.22.7-12.17-.36-3.91-.85-7.9-1.44-11.88-1.92-.21-.02-.36-.18-.4-.37l-.37-1.78.02.07c-.02-.09-.04-.21-.06-.3-.67-4.65-1.03-10.6,2.82-14.02,4.27-3.09,10.21-1.18,14.15,1.52.21.15,0,.48-.22.35-3.93-2.14-9.34-3.85-13.3-1.07-3.43,3.11-3.04,8.95-2.44,13.17,0,.01.01.07.01.08,0,0,0-.03-.01-.05,0,0,.02.07.02.07l.34,1.7-.43-.37c4.01.49,8,1.07,11.96,1.93,3.8,1.03,7.85,1.4,11.67.38,0,0-.36.46-.36.46l1.74-42.73c0-.6,1.02-.66,1,.04h0Z"/>
    <line class="cls-1" x1="68.22" y1="131.85" x2="68.22" y2="113.71"/>
    <path class="cls-24" d="M61.65,112.05c4.45.99,9.04.87,13.43-.41.29-.09.46.36.18.48-4.26,1.94-9.38,2.13-13.75.42-.28-.11-.15-.56.15-.49h0Z"/>
    <path class="cls-24" d="M60.43,148.15c-6.05,1.49-12.12.13-18.21.12-6.19.75-4.28-9.84-2.44-13.1,2.14-4.69,6.55-6.31,11.49-5.7,2.26.22,4.46.98,6.35,2.17.1.06.13.19.07.29-.06.09-.17.12-.26.08-2.01-.86-4.11-1.43-6.24-1.58-2.12-.09-4.37-.09-6.25.77-3.85,1.82-5.54,6.56-5.85,10.6-.05,1.78-.08,4.39,1.63,5.35.87.13,2.19-.01,3.16.04,3.32,0,6.57.67,9.88.64,2.17-.02,4.34-.25,6.48-.65.63-.12.83.85.19.98h0Z"/>
    <ellipse class="cls-1" cx="79.87" cy="51.29" rx="7.12" ry="8.47"/>
    <ellipse class="cls-1" cx="79.87" cy="51.29" rx="7.12" ry="8.47"/>
    <path class="cls-1" d="M74.93,51.77c.25.28,2.01,2.22,4.88,2.18,3.11-.05,4.87-2.38,5.06-2.65"/>
    <path class="cls-1" d="M50.46,129.88l-.49-22.63c.66-4.24,1.69-9.07,3.31-14.31,1.41-4.55,3.02-8.59,4.62-12.08"/>
    <path class="cls-1" d="M50.13,114.48c-3.11.03-3.69-.22-3.69-.22-.67-.15-2.23-.49-3.69-1.73-1.73-1.47-4.85-7.49-1.87-10.99,1.52-1.78,3.9-2.07,4.97-2.12.82-3.14,1.89-6.57,3.28-10.21,1.77-4.6,3.72-8.63,5.62-12.07h0"/>
    <path class="cls-24" d="M62.44,71.9c-.75,1.44-1.45,2.95-2.69,4.04-.09.06-.21.04-.27-.05-.07-.1-.03-.22.06-.28.98-1.13,1.38-2.76,2-4.11.28-.56,1.14-.18.92.4h0Z"/>
    <path class="cls-24" d="M71.26,73.92c0,1.62.09,3.29-.51,4.83-.05.1-.17.13-.27.08-.1-.05-.13-.18-.08-.28.34-1.46-.06-3.08-.14-4.57-.02-.63.93-.69,1-.07h0Z"/>
    <path class="cls-24" d="M79.77,71.81c.6,1.51,1.27,3.03,1.27,4.69-.01.11-.11.19-.22.17-.12-.01-.18-.12-.17-.23-.21-1.48-1.17-2.85-1.78-4.21-.24-.58.61-.98.9-.43h0Z"/>
    <path class="cls-24" d="M86.78,66.33c1.18,1.11,2.44,2.2,3.15,3.7.03.1-.02.22-.12.25-.11.04-.22-.03-.26-.13-.82-1.25-2.28-2.08-3.4-3.05-.47-.41.15-1.15.64-.77h0Z"/>
    <path class="cls-24" d="M91.03,58.73c1.49.64,3.05,1.24,4.22,2.41.16.21-.16.45-.32.24-1.2-.9-2.85-1.18-4.24-1.7-.58-.24-.26-1.12.34-.94h0Z"/>
    <path class="cls-24" d="M92.18,50.02c1.49-.02,3.16.3,4.59-.16.22-.1.39.23.18.35-1.14.59-2.36.59-3.59.75-.54,0-1.63.37-1.67-.46.01-.26.23-.47.49-.47h0Z"/>
    <path class="cls-24" d="M89.39,42.19c1.36-.62,3.01-1,4.14-2,.16-.18.45.06.31.25-.81.99-1.93,1.49-2.99,2.13-.5.21-1.34.99-1.72.25-.09-.25.02-.52.26-.63h0Z"/>
    <path class="cls-24" d="M76.46,31.82c.38-1.44,1.13-2.96,1.07-4.47-.04-.24.33-.31.39-.08.26,1.25-.06,2.43-.24,3.66-.15.52-.08,1.67-.89,1.49-.25-.08-.39-.35-.33-.6h0Z"/>
    <path class="cls-24" d="M67.74,31.15c.13-1.49.61-3.11.3-4.59-.08-.23.27-.36.37-.15.47,1.19.35,2.41.39,3.65-.06.54.21,1.66-.63,1.62-.26-.04-.44-.27-.42-.53h0Z"/>
    <path class="cls-24" d="M59.76,33.86c-.66-1.34-1.1-2.97-2.14-4.07-.18-.15.04-.45.24-.32,1.02.77,1.55,1.87,2.23,2.91.23.49,1.04,1.31.31,1.71-.24.1-.52,0-.64-.23h0Z"/>
    <path class="cls-24" d="M49.36,55.33c-1.6.27-3.23.61-4.85.27-.1-.04-.16-.15-.12-.25.04-.11.15-.16.26-.12,1.49.1,3.03-.55,4.49-.87.62-.12.83.8.23.97h0Z"/>
    <path class="cls-24" d="M50.32,47.08c-1.57-.4-3.2-.74-4.55-1.71-.08-.07-.09-.2-.01-.28.08-.09.2-.08.29,0,1.33.7,3,.72,4.46,1.01.61.14.44,1.07-.18.98h0Z"/>
    <path class="cls-24" d="M53.44,39.4c-1.27-1.02-2.61-2-3.43-3.44-.04-.1,0-.22.1-.26.11-.05.22.01.27.11.92,1.18,2.43,1.89,3.64,2.77.5.37-.06,1.16-.57.82h0Z"/>
    <path class="cls-24" d="M55.38,67.4c-1.24,1.05-2.47,2.17-4.04,2.7-.11.02-.21-.05-.23-.15-.02-.11.05-.21.16-.24,1.34-.67,2.33-2.02,3.42-3.03.46-.42,1.13.28.69.72h0Z"/>
    <path class="cls-24" d="M52.4,63.44c-1.5.64-3,1.35-4.65,1.4-.11-.01-.19-.11-.18-.21.01-.12.11-.19.22-.18,1.48-.25,2.82-1.25,4.16-1.89.57-.26.99.59.45.89h0Z"/>
    <path class="cls-24" d="M77.86,59.44c-.2,1.11-.71,2.56-.05,3.58.04.04-.01.1-.06.07-.99-.93-.81-2.53-.89-3.79,0-.28.23-.5.51-.5.32,0,.57.33.48.64h0Z"/>
    <path class="cls-24" d="M74.81,57.43c-.79.36-1.88.85-2.04,1.77-.32-.45.16-1.11.43-1.5.43-.41,1.14-1.68,1.81-1.06.22.25.12.67-.2.79h0Z"/>
    <path class="cls-24" d="M72.8,53.93c-.96-.03-2.28.09-2.62,1.14-.22-.57.41-1.2.88-1.48.51-.31,1.05-.51,1.65-.66.27-.07.54.1.61.37.08.32-.19.65-.52.62h0Z"/>
    <path class="cls-24" d="M72.71,50.09c-1.02-.26-2.53-.55-2.75-1.75,0-.03.02-.05.05-.05.5.93,1.83.85,2.75.8.76-.06.71,1.12-.04,1h0Z"/>
    <path class="cls-24" d="M73.93,45.72c-.89-.81-2.17-2.13-1.44-3.39.03-.05.1,0,.08.04-.21.58.1,1.13.5,1.52.4.4.92.74,1.41.99.66.34.03,1.31-.55.84h0Z"/>
    <path class="cls-24" d="M76.73,42.93c.07-.55.26-1.29-.03-1.78-.01-.02,0-.05.01-.07.62.25.78,1.21,1.02,1.8.19.83-1.12.88-1,.04h0Z"/>
    <path class="cls-24" d="M82.05,43.06c.41-.65,1.12-1.46.92-2.28-.01-.02,0-.06.02-.07.43.27.3.97.27,1.41-.17.56-.08,1.87-.96,1.72-.33-.1-.46-.52-.25-.79h0Z"/>
    <path class="cls-24" d="M85.82,45.7c.87-.15,2.06-.34,2.46-1.19.19.53-.45,1.03-.82,1.34-.51.28-1.57,1.34-2.03.57-.15-.3.06-.68.39-.72h0Z"/>
    <path class="cls-24" d="M87.5,49.39c.98.5,2.42.9,3.14-.17-.1,1.09-1.58,1.35-2.49,1.26-.48-.07-1.5,0-1.37-.76.07-.32.44-.48.72-.33h0Z"/>
    <path class="cls-24" d="M83.33,58.96c.32.69.67,1.76,1.49,1.96.03,0,.05.02.05.05-.83.32-1.86-.93-2.4-1.51-.18-.21-.15-.53.06-.71.26-.23.68-.11.8.21h0Z"/>
    <path class="cls-24" d="M86.59,55.83c.54.79,1.61,1.8,2.59,1.07.02-.02.05-.01.07,0-.08.28-.47.47-.78.57-.99.19-1.9-.38-2.64-.99-.21-.18-.23-.5-.04-.71.21-.25.62-.22.8.05h0Z"/>
    <path class="cls-5" d="M53.84,39.91c4.8,1.53,8.22,5.59,6.97,10.37-1.22,4.64-7.24,7.04-11.01,5.21"/>
    <path class="cls-5" d="M49.79,49.99s3.43,3.66,7.17,0"/>
    <path class="cls-24" d="M54.98,56.31c-.1.95-.22,2.28.68,2.85-.6.09-1.03-.69-1.24-1.18-.15-.57-.91-2.04,0-2.25.33-.05.62.25.57.58h0Z"/>
    <path class="cls-24" d="M57.97,54.69c.53.8,1.38,1.82,2.43,1.49-.34.51-1.22.35-1.72.12-.51-.3-2.08-.93-1.53-1.68.22-.25.64-.22.81.07h0Z"/>
    <path class="cls-24" d="M60.68,51.59c.57.58,1.42,1.31,2.25.95-.59.9-2.08.22-2.86-.16-.67-.39.06-1.35.61-.79h0Z"/>
    <path class="cls-24" d="M59.96,43.78c.87-.09,2.22-.36,2.23-1.48,0-.06.08-.07.09-.02.3.92-.56,1.7-1.3,2.1-.41.21-1.18.73-1.46.07-.12-.31.11-.65.44-.67h0Z"/>
    <path class="cls-24" d="M57.16,41.06c.67-.91,2.15-2.35,3.24-1.45-1.21-.29-1.96.97-2.37,1.93-.29.69-1.3.13-.88-.48h0Z"/>
    <path class="cls-24" d="M61.39,47.33c.82-.07,2.62,0,2.67,1.04-.59-.73-1.68-.37-2.42-.07-.72.29-1.02-.88-.25-.97h0Z"/>
    <path class="cls-11" d="M42.95,69.56l.47-3.37-1.94-1.63c.07-.55.19-1.18.38-1.86.28-.98.64-1.8.99-2.45-.17-.04-.34-.1-.53-.16-.83-.31-1.46-.77-1.9-1.18-1.04,1.58-2.31,3.11-3.29,2.83-.05-.01-.09-.03-.11-.04-.66-.29-2.04-.76-4.95-1.58l6.12-2.74-.82-6.25,3.06-3.98-1.29-2.1c-1.42,2.98-2.65,3.64-3.53,3.68-1.46.06-3.53-1.58-3.53-1.58l3.18-3.12h3l3.59-3.76-1.48-3.53,2.03-4.41h2.15s5.76-3.59,5.82-4.01c.06-.41.77-2.41.77-2.41l-1.35-2.41c.57-1.79.94-2.94.94-2.94h0l-2.6-1.29h0s-.79.87-2.28,2.53c-1.9-.92-3.12-1.52-3.12-1.52h0s.9-2.09,2.59-6.01l-4.24-4.06s-1.06-1.53.68-3.59v-.76l-5.62-.29-.82-.59,1.18-2.59s-.82-.53-.24-1.94c0,0-3.71,4.59-3.59,6.94,0,0,2.41,1.06,1.59,5.47,0,0-2.18.24-2.53,1.47-.35,1.24-1.76,4.47-1,5.65.76,1.18,1.24,2.29,1.24,2.29,0,0-2.94,2.48-3,3.39s-.53,3.38.41,3.79c-1.87,2.18-2.88,3.36-2.88,3.36h0l-3.76-2h0l3.24-6.24-2.29-.88s2.41-7,.82-7.59c-1.59-.59-3.82.24-3.82.24l-1.35-1.59-5,.12-1.24,3.88-2.82-.88s-3.29,3.71-3.35,4.18c-.06.47,1.94,5.18,1.94,5.18l-1.35.8-.12,1.11-2.76,1.68-1.59-.33s-1.71,2.04-2.88,1.68c0,0,1.09,6.97,2.35,7.2,1.26.24,9.68,2.29,9.68,2.29,0,0-2.56,6.79-.88,8.21s4.21,2.88,4.21,2.88l8.88.35,1.41.97-1.79,1.38-3.12.38-2.68,1.82.03,2.82,4.06.79.09,5.44,3.85-.18,1.09-2.29s4.62-2.53,8.12-.91l-1.59,4.65,6.47-1.62,2.65,3.21Z"/>
    <path class="cls-1" d="M59.33,63.21c1.16-.46,3.43-1.18,6.31-.91,3.4.31,5.77,1.82,6.79,2.56"/>
    <path class="cls-1" d="M53.25,64.36c-.12-.16-.22-.32-.32-.48-.91-1.4-1.64-2.91-2.19-4.51-.03-.07-.06-.15-.08-.22-.7-2.1-1.08-4.35-1.08-6.69,0-3.48.84-6.76,2.33-9.65,3.5-6.82,10.6-11.49,18.8-11.49,11.67,0,21.13,9.46,21.13,21.14s-9.46,21.13-21.13,21.13c-1.77,0-3.48-.22-5.12-.62h0s-.03-.02-.04-.02h0c-1.88-.49-4.66-1.48-7.47-3.56-1.56-1.15-2.75-2.37-3.64-3.42"/>
    <path class="cls-24" d="M83.79,35.68c1.12-.99,2.58-1.85,3.36-3.14.1-.22.44-.08.37.14-.47,1.19-1.4,1.99-2.21,2.92-.41.35-.99,1.35-1.57.75-.16-.21-.13-.5.06-.68h0Z"/>
    <path class="cls-24" d="M65.69,87.33v5.39h-.68v-5.39h.68Z"/>
    <path class="cls-6" d="M68.81,90.23l1.51,1.88c.54-.56,1.07-1.12,1.61-1.68.78-.9.6-2.03.06-2.38-.39-.25-1.05-.14-1.59.27-.47-.39-1.07-.52-1.46-.3-.55.31-.79,1.35-.13,2.21Z"/>
    <g>
      <path class="cls-24" d="M63.78,96.85c-.04-.75-.09-1.66-.08-2.33h-.02c-.18.63-.4,1.3-.67,2.05l-.93,2.61h-.52l-.85-2.57c-.25-.76-.46-1.46-.61-2.09h-.02c-.02.67-.05,1.58-.1,2.38l-.14,2.31h-.65l.37-5.39h.87l.9,2.61c.22.66.4,1.25.53,1.81h.02c.13-.54.32-1.14.56-1.81l.94-2.61h.87l.33,5.39h-.67l-.13-2.37Z"/>
      <path class="cls-24" d="M66.3,93.83v5.39h-.68v-5.39h.68Z"/>
      <path class="cls-24" d="M67.49,93.83h.68v4.81h2.25v.58h-2.94v-5.39Z"/>
      <path class="cls-24" d="M71.19,93.83h2.84v.58h-2.16v1.79h2v.58h-2v2.44h-.68v-5.39Z"/>
      <path class="cls-24" d="M74.91,98.37c.31.19.75.35,1.22.35.7,0,1.1-.38,1.1-.92,0-.5-.28-.79-.99-1.07-.86-.31-1.39-.77-1.39-1.53,0-.84.68-1.46,1.71-1.46.54,0,.93.13,1.17.26l-.19.57c-.17-.1-.52-.26-1-.26-.72,0-.99.44-.99.81,0,.5.32.75,1.05,1.04.89.35,1.35.79,1.35,1.58,0,.83-.6,1.55-1.85,1.55-.51,0-1.06-.15-1.35-.34l.17-.58Z"/>
    </g>
    <path class="cls-6" d="M166.51,75.6c.87,1.08,1.74,2.16,2.61,3.25.93-.97,1.85-1.94,2.78-2.9,1.35-1.55,1.04-3.51.11-4.11-.68-.44-1.82-.24-2.75.46-.82-.67-1.85-.9-2.52-.52-.95.53-1.36,2.33-.22,3.83Z"/>
  </g>
  <g id="outline">
    <g>
      <path class="cls-21" d="M54.15,64.09s.62.29.47,1.61l-9.1,3.16-.02-.16.02-.24-.02-.2v-.15l-.03-.15-.05-.17-.03-.09-.06-.13-.08-.14-.08-.11-.1-.1.3-.14,1.52-.52,1.22-.44,6.06-2.04Z"/>
      <polygon class="cls-30" points="54.21 64.07 58.65 62.59 58.9 62.69 59.05 62.9 59.12 63.06 59.17 63.21 59.22 63.36 59.22 63.49 59.22 63.72 59.19 63.89 59.15 64.02 59.09 64.13 59.02 64.17 54.64 65.69 54.64 65.53 54.64 65.35 54.64 65.06 54.61 64.93 54.58 64.79 54.51 64.6 54.43 64.42 54.3 64.22 54.21 64.07"/>
      <path class="cls-12" d="M45.14,67.32c.07.08.15.19.21.33.24.51.14,1.05.1,1.23-.07,0-.25.01-.43-.12-.27-.2-.32-.55-.33-.61-.01-.05-.09-.31.03-.59.09-.2.22-.29.27-.32.05.03.09.06.14.09Z"/>
      <path class="cls-3" d="M58.65,62.59c-1.65.55-12.86,4.28-13.62,4.64-.05.02-.18.09-.27.26-.22.42.04,1.26.43,1.38.06.02.11.02.14.02.05,0,.1-.01.15-.02h0c4.53-1.57,9.06-3.14,13.59-4.71.02-.03.06-.09.09-.17.2-.54-.15-1.39-.45-1.4-.03,0-.05,0-.06,0Z"/>
      <path class="cls-2" d="M45.03,67.22s.63.42.46,1.64"/>
      <path class="cls-2" d="M54.21,64.09c.1.11.3.38.4.8.08.36.04.66.01.81"/>
    </g>
    <g>
      <path class="cls-21" d="M174.03,52.73s-.38.26-.16,1.15l6.19,1.38v-.11s-.04-.16-.04-.16v-.14s-.02-.1-.02-.1v-.1s.02-.12.02-.12v-.06s.04-.09.04-.09l.04-.1.04-.08.06-.08-.21-.07-1.03-.23-.83-.2-4.11-.88Z"/>
      <polygon class="cls-30" points="173.99 52.73 170.98 52.09 170.82 52.19 170.75 52.34 170.72 52.46 170.7 52.57 170.67 52.67 170.69 52.76 170.71 52.92 170.74 53.04 170.79 53.12 170.83 53.19 170.88 53.22 173.86 53.88 173.84 53.77 173.83 53.65 173.8 53.45 173.81 53.35 173.82 53.25 173.84 53.12 173.88 52.98 173.94 52.84 173.99 52.73"/>
      <path class="cls-22" d="M180.16,54.17c-.04.06-.08.15-.11.25-.11.38,0,.74.05.86.04,0,.16-.01.27-.12.16-.16.16-.41.16-.45,0-.04.03-.22-.08-.4-.07-.13-.17-.18-.21-.2-.03.02-.05.05-.08.07Z"/>
      <path class="cls-3" d="M170.98,52.09c1.12.23,8.73,1.82,9.25,2,.03.01.13.05.2.15.18.27.09.87-.15.99-.04.02-.07.02-.09.02-.03,0-.07,0-.1,0h0c-3.08-.69-6.16-1.37-9.24-2.06-.02-.02-.05-.06-.07-.11-.18-.36-.03-.97.16-1.01.02,0,.03,0,.04,0Z"/>
      <path class="cls-2" d="M180.23,54.09s-.37.35-.15,1.17"/>
      <path class="cls-2" d="M173.99,52.74c-.05.08-.16.29-.18.59-.02.25.03.46.07.56"/>
    </g>
    <path class="cls-24" d="M171.58,52.16c-.34.27-.68.54-1.02.81.02-.24.03-.48.05-.72l.39-.53c.19.15.39.29.58.44Z"/>
  </g>
</svg>